<svg width="120" height="120" viewBox="0 0 120 120" version="1.1" xmlns="http://www.w3.org/2000/svg"><rect fill="#000505" width="120" height="120" x="0" y="0"/><path fill="#e6ffff" d="m 12,31.324028 v 57.351954 h 22.049848 c 5.815843,0 10.87904,-1.184677 15.187073,-3.554095 3.106314,-1.687383 5.698206,-3.876681 7.794027,-6.547246 l -3.229799,10.101341 h 16.074498 l 3.391949,-11.227609 h 15.265952 l 3.47302,11.227609 H 108 L 89.745271,31.324028 H 72.136946 l -9.17009,28.682551 c 6.3e-5,-0.02967 0.0023,-0.05794 0.0023,-0.08766 0,-5.277337 -1.105198,-10.070493 -3.313063,-14.378524 -2.154017,-4.361883 -5.38356,-7.807021 -9.691592,-10.33799 -4.254191,-2.584816 -9.560207,-3.878387 -15.914554,-3.878387 z m 15.750206,13.732128 h 6.299642 c 2.69252,0 5.009619,0.619561 6.948234,1.858121 1.938613,1.238557 3.418365,2.98835 4.441521,5.250067 1.023158,2.207867 1.536018,4.792815 1.536018,7.754587 0,2.854072 -0.51286,5.439019 -1.536018,7.754587 -1.023156,2.261716 -2.502908,4.038732 -4.441521,5.331142 -1.884765,1.292409 -4.201863,1.939193 -6.948234,1.939193 h -6.299642 z m 53.190902,1.695973 5.087921,20.193917 H 75.609967 Z"/></svg>
