<svg width="5200" height="5200" version="1.1" viewBox="0 0 5200 5200" xmlns="http://www.w3.org/2000/svg"><g><rect x="100" y="100" width="5e3" height="5e3" fill="#0e5850" stroke="#072c28" stroke-linejoin="round" stroke-width="200"/><path d="m600 1100v3e3h790.6c705.2 0 1161-243.7 1366-730.9-.099.2286-.1812.4661-.2797.6944h1147l214.1 730.2h482.6l-942.3-2999h-666.5l-239 760.6c.046.082.064.1694.099.2518-208-507.7-662-761.5-1362-761.5h-312.6zm2704 401.3h41.37l440.6 1467h-922.5zm-2226 1e-4h312.6c335.5 0 587.6 95.05 756.1 285.1 170.1 188.7 255.1 473.8 255.1 855.5 0 352-85.03 616.1-255.1 792.1-168.5 176-420.6 264-756.1 264h-312.6z" fill="#40e0d0" stroke-width="28.42"/></g></svg>
