<svg version="1.1" xmlns="http://www.w3.org/2000/svg" x="0" y="0" viewBox="0 0 455.14 58.22"><path fill="#777B87" d="M427.41,35.5l-6.01-19.53l-5.97,19.53H427.41z M407.39,15.31 M409.48,55.95 M410.55,6.9l1.88-5.01h18.3 l20.43,54.33h-17.57l-2.67-8.97H411.8l-2.32,8.97h-3.88h-12.18h-1.04L410.55,6.9z"/><path fill="#777B87" d="M344.46,17.15l-15.82,0.92c-0.42-2.44-1.3-4.23-2.66-5.34c-1.34-1.1-3.2-1.66-5.57-1.66 c-1.96,0-3.43,0.41-4.41,1.24c-0.99,0.82-1.48,1.83-1.48,3.02c0,0.86,0.4,1.63,1.21,2.33c0.8,0.72,2.67,1.38,5.64,2 c7.34,1.58,12.59,3.19,15.76,4.81c3.18,1.62,5.49,3.62,6.93,6.02c1.44,2.39,2.18,5.07,2.18,8.04c0,3.48-0.97,6.69-2.9,9.63 c-1.92,2.95-4.56,5.3-8.08,6.69c-3.92,1.55-7.78,1.98-7.78,1.98c-1.26,0.13-3.09,0.27-5.3,0.29c-6.13,0.06-11.13,0.1-15.81-2.78 c-1.35-0.83-4.3-2.7-5.83-6.26c-0.88-2.04-1.25-5.08-0.72-10.1c7.23,0.16,6.03,0.13,13.26,0.29c0.38,2.09,1.03,3.72,1.95,4.9 c1.72,2.2,4.2,3.29,7.41,3.29c2.39,0,4.24-0.56,5.54-1.68c1.29-1.13,1.94-2.43,1.94-3.91c0-1.4-0.61-2.67-1.85-3.78 c-1.24-1.11-4.1-2.16-8.6-3.15c-7.36-1.66-12.61-3.85-15.75-6.59c-1.84-1.6-3.14-3.45-3.91-5.56c-0.38-1.13-0.79-2.79-0.79-4.82 c0-2.48,0.6-4.31,0.79-4.85c0.09-0.25,0.62-1.68,1.6-3.18c1.62-2.48,4.05-4.43,7.3-5.86c3.25-1.42,7.7-2.12,13.36-2.12 c2.13,0,4.05,0.09,5.81,0.29c6.47,0.75,12.28,4.59,15.07,10.47C343.71,13.33,344.29,15.15,344.46,17.15z"/><path fill="#777B87" d="M278.1,56.22V15.31V1.89h0.8h16.03v10.24v44.09H278.1z"/><path fill="#777B87" d="M152.87,35.5l-6.01-19.53l-5.97,19.53H152.87z M174.58,56.22h-15.52l-2.67-8.97h-19.13l-2.63,8.97h-10.89h-4.39 h-1.87l1.62-4.31l4.79-12.74L137.9,1.89h18.3l1.26,3.36L174.58,56.22z"/><path fill="#777B87" d="M85.4,44.55h8.56c2.9,0,4.93-0.5,6.11-1.53c1.19-1.02,1.78-2.4,1.78-4.14c0-1.61-0.58-2.9-1.76-3.87 c-1.18-0.97-3.23-1.47-6.17-1.47H85.4V44.55z M85.4,23.2h7.3c2.62,0,4.44-0.46,5.48-1.35c1.02-0.91,1.53-2.21,1.53-3.91 c0-1.58-0.51-2.82-1.53-3.71c-1.04-0.9-2.82-1.34-5.36-1.34H85.4V23.2z M113.83,51.92c-0.75,0.67-1.58,1.26-2.48,1.79 c-1.41,0.81-3.53,1.41-6.37,1.77c-3.78,0.49-6.29,0.75-7.53,0.75H68.47V1.89H99.9c5.24,0,9.26,1.3,12.05,3.9 c2.81,2.59,4.21,5.8,4.21,9.62c0,3.21-1,5.97-3,8.27c-1.34,1.53-3.29,2.75-5.86,3.63c3.9,0.94,6.77,2.56,8.61,4.83 c1.55,1.93,2.45,4.27,2.69,7.03C118.62,48.96,113.83,51.92,113.83,51.92z"/><polygon fill="#777B87" points="166.66,1.89 218.48,1.89 218.48,15.31 200.56,15.31 200.56,56.22 184.58,56.22 184.58,15.31 166.66,15.31"/><polygon fill="#777B87" points="222.88,1.89 274.7,1.89 274.7,15.31 256.78,15.31 256.78,56.22 240.8,56.22 240.8,15.31 222.88,15.31"/><polygon fill="#777B87" points="348.25,1.89 400.06,1.89 400.06,15.31 382.14,15.31 382.14,56.22 366.16,56.22 366.16,15.31 348.25,15.31 "/><text transform="matrix(1 0 0 1 442.7481 15.4303)" fill="#777B87" class="st0">®</text><g><path fill="#0174BA" d="M8.61,1.86H0.9v24.58c1.99-1.94,3.83-3.55,5.51-4.84c1.68-3.39,2.83-6.05,3.42-7.94 c0.59-1.9,0.88-3.86,0.88-5.86c0-1.63-0.23-2.96-0.68-3.97C9.71,3.12,9.23,2.46,8.61,1.86 M36.18,1.86H10.96 c1.09,1.71,1.64,3.93,1.64,6.66c0,2.75-0.88,6.23-2.61,10.42c6.45-5.23,12.5-9.53,18.16-12.87C31.26,4.25,33.93,2.85,36.18,1.86z M44.82,1.86h-2.64c-2.55,0.29-5.33,1.33-8.34,3.12c-3.61,2.15-7.35,5.24-11.22,9.31c-5.46,5.69-10.63,11.98-15.52,18.86 c-1.82,2.55-3.89,5.9-6.19,10.05v13.04h54.4V46.08c-1.19,0.94-2.55,1.91-4.09,2.89c-3.79,2.4-8.05,4.46-12.76,6.17 c-1.1,0.4-2.18,0.76-3.24,1.08h-8.64c5.26-0.54,11.1-2.5,17.51-5.9c7.38-3.9,11.06-7.54,11.06-10.89l-0.12-1.41 c-6.42,0.7-14.74,2.66-24.98,5.89c-4.78,1.53-8.02,2.93-9.7,4.22c-1.77,1.3-2.64,2.72-2.64,4.24c0,1.23,0.53,2.2,1.6,2.93 c0.67,0.45,1.49,0.76,2.46,0.93h-7.82c-1.29-0.86-1.93-1.89-1.93-3.09c0-2.38,2.04-4.52,6.13-6.42c3.98-1.86,9.69-3.82,17.11-5.84 c7.4-2.03,13.93-3.41,19.59-4.13c-0.33-0.82-0.71-1.45-1.15-1.88c-0.44-0.44-1.11-0.82-2.03-1.16c-1.26-0.52-2.82-0.85-4.71-1.03 c-1.89-0.18-5.95-0.33-12.21-0.47c-3.64-0.08-5.95-0.34-6.94-0.81c-1.1-0.48-1.64-1.4-1.64-2.76c0-1.36,0.56-2.5,1.7-3.42 c1.14-0.93,3.44-2.12,6.88-3.6C45.17,17.18,50.4,12.79,50.4,8.42c0-1.83-0.66-3.41-1.97-4.71C47.4,2.69,46.2,2.07,44.82,1.86z M55.3,1.86h-2.23c1.24,1.23,1.86,2.8,1.86,4.69c0,1.87-0.6,3.61-1.82,5.21c-1.22,1.6-3.22,3.31-6,5.13c-2,1.31-4.9,2.9-8.69,4.76 c-0.94,0.49-1.41,0.83-1.41,1.05c0,0.21,0.27,0.32,0.81,0.32c1.04-0.05,3,0.04,5.87,0.29c2.87,0.23,5.32,0.51,7.35,0.79 c1.58,0.21,3,0.52,4.26,0.93V1.86z"/></g></svg>
