<?xml version="1.0" encoding="utf-8"?>
<!-- Generator: Adobe Illustrator 25.2.3, SVG Export Plug-In . SVG Version: 6.00 Build 0)  -->
<svg version="1.1" id="Livello_1" xmlns="http://www.w3.org/2000/svg" xmlns:xlink="http://www.w3.org/1999/xlink" x="0px" y="0px"
	 viewBox="0 0 471.32 90" style="enable-background:new 0 0 471.32 90;" xml:space="preserve">
<style type="text/css">
	.st0{fill:#BD1218;}
	.st1{fill:#3C3C3B;}
	.st2{fill:#00A98E;}
	.st3{fill:#0086FF;}
</style>
<g id="Livello_2">
</g>
<g>
	<g>
		<g>
			<g>
				<g>
					<path class="st0" d="M231.43,6.4c-2.3,2.96-4.58,7.25-5.64,9.37c-0.04,0.07-0.08,0.13-0.11,0.19c-0.36,0.67-0.53,1.1-0.53,1.1
						c-20.31-8.65-36.52-1.32-36.52-1.32c-24.59,8.56-23.8,27.83-23.57,30.62c0.02,0.16,0.02,0.26,0.03,0.3
						c-0.01-0.02-0.02-0.03-0.03-0.05c-0.06-0.14-0.11-0.3-0.16-0.48c-0.03-0.09-0.05-0.17-0.08-0.27
						c-1.57-4.9-8.11-30.19,18.26-41.45c0.52-0.23,1.08-0.45,1.63-0.67c1.72-0.67,3.44-1.23,5.14-1.69c0.39-0.11,0.77-0.2,1.16-0.3
						c0.42-0.11,0.83-0.2,1.25-0.3c0.3-0.07,0.6-0.13,0.9-0.2c0.24-0.05,0.48-0.1,0.73-0.14c0.27-0.05,0.55-0.11,0.82-0.15
						c0.41-0.08,0.82-0.14,1.23-0.2c0.03-0.01,0.06-0.01,0.09-0.02C211.9-1.6,225.51,3.59,231.43,6.4z"/>
					<path class="st1" d="M240.69,42.2c0,0-2.41,3.3-4.57,5.35c-0.55,0.56-1.17,1.05-1.88,1.46l-0.02,0.02
						c-2.28-1.32-4.45-2.44-6.51-3.4c-2.74-1.26-5.29-2.23-7.6-2.96c-4.93-1.57-8.83-2.09-11.47-2.22
						c-1.83-3.23-4.76-5.75-8.27-7.05c19.29-7.58,32.74-4.02,32.74-4.02L240.69,42.2z"/>
					<path class="st1" d="M194.9,35.39c-7.07,0-12.8,5.73-12.8,12.79c0,5.46,3.41,10.11,8.23,11.96c1.42,0.55,2.96,0.84,4.58,0.84
						c2.4,0,4.65-0.66,6.56-1.82c3.73-2.22,6.23-6.31,6.23-10.99C207.69,41.11,201.96,35.39,194.9,35.39z"/>
					<path class="st1" d="M179.11,48.18c0-8.69,7.08-15.77,15.78-15.77c0.37,0,0.73,0.01,1.1,0.04c0,0,13.6-7.06,31.87-6.3
						c-1.15-1.91-3-4.85-3.38-4.98c-7.7-3.42-16.51-4.59-24.98-3.24c-0.13,0.02-0.25,0.04-0.37,0.06c-0.16,0.03-0.31,0.05-0.46,0.08
						c-8.61,1.5-13.51,4.5-13.51,4.5c-2.56,1.37-5.4,3.27-7.97,5.87c-2.57,2.59-4.86,5.89-6.35,10.02c-0.03,0.1-0.07,0.2-0.11,0.3
						c-0.04,0.11-0.07,0.22-0.11,0.33c-0.16,0.47-0.3,0.92-0.43,1.38c0,0.01,0,0.02-0.01,0.03c-0.47,1.79-0.65,3.47-0.65,5.03
						c0,4.48,1.53,7.77,2.06,8.79c0,0,0.13,0.26,0.37,0.64v0.01c0.24,0.4,0.6,0.92,1.07,1.46c0.97,1.31,4.44,6.47,3.86,13.09
						c-0.12,3.58-0.83,7-2.07,10.14c-1.44,3.71-3.61,7.06-6.37,9.85c5.65-2.05,10.48-5.77,13.94-10.54c2.04-2.82,3.61-6,4.57-9.45
						c0,0,0.97-3.36,1.33-7.01c-1.61-0.74-3.08-1.76-4.34-2.98C180.97,56.66,179.11,52.64,179.11,48.18z"/>
				</g>
				<path class="st1" d="M223.64,60.44c0.01,2.07-1.39,3.95-3.49,4.45c-2.46,0.62-4.94-0.88-5.54-3.34c-0.5-2,0.4-4.02,2.08-5.02
					l-2.99-3.34c-0.42-0.47-0.44-1.16-0.05-1.66l0.17-0.24l5.96,4.66l3.5,2.74c0.1,0.22,0.15,0.45,0.22,0.68
					C223.59,59.72,223.64,60.08,223.64,60.44z"/>
				<path class="st1" d="M221.58,77.56l-1.17,1.28c-0.67-0.07-1.32-0.14-1.94-0.22h-0.01c-1.66-0.23-3.13-0.52-4.42-0.86
					c0-0.01-0.01-0.01-0.02,0c-0.84-0.23-1.6-0.46-2.3-0.71c-0.19-0.08-0.37-0.14-0.56-0.21c-2.24-0.88-3.71-1.86-4.64-2.65
					c-0.88-0.76-1.38-1.86-1.38-3.03v-3.29c1.75,2.85,3.97,4.86,6.2,6.26c0.5,0.33,1.02,0.62,1.52,0.88
					c2.76,1.46,5.41,2.08,7.11,2.34C220.71,77.48,221.26,77.54,221.58,77.56z"/>
				<path class="st1" d="M232.36,52.15c-0.26-0.15-0.51-0.3-0.8-0.45c-0.91-0.5-1.7-0.92-2.44-1.29l-1.19-0.6
					c-2.22-1.08-4.46-2.03-6.67-2.81c3.55,3.81,5.73,8.92,5.73,14.54c0,6.29-2.71,11.92-7.03,15.84c-0.48,0.43-0.98,0.85-1.5,1.25
					h-0.01c-3.57,2.68-8.02,4.28-12.81,4.28c-6.9,0-13.07-3.31-16.96-8.41c-1.61,3.91-3.47,6.27-3.63,6.47
					c5.15,5.46,12.46,8.88,20.58,8.88c15.63,0,28.3-12.67,28.3-28.3C233.95,58.25,233.38,55.09,232.36,52.15z"/>
			</g>
			<g>
				<path class="st1" d="M48.76,43.44c-5.12-5.16-12.22-8.36-20.06-8.36c-6.76,0-12.97,2.38-17.83,6.34V23.51V11.52V7.39
					c0-3.94-3.19-7.14-7.14-7.14H0.48v3.43v19.82v39.8c0,12.2,7.74,22.59,18.58,26.53c-5.05-5.1-8.17-12.12-8.17-19.87v-6.67
					c0-8.21,5.59-15.15,13.17-17.2c1.49-0.41,3.05-0.62,4.66-0.62c5.69,0,10.76,2.68,14.01,6.84c2.29,2.91,3.69,6.55,3.8,10.5
					c0.25,9.36-6.52,17.21-15.83,18.2c-2.08,0.22-4.15,0.09-6.07-0.38c3.28,4.44,8.56,7.34,14.5,7.34c1.43,0,2.83-0.17,4.16-0.49
					c7.36-4.44,12.52-12.14,13.49-21.09c0.11-1.01,0.17-2.04,0.17-3.09C56.93,55.56,53.81,48.54,48.76,43.44z"/>
				<path class="st1" d="M149.74,0.25v63.06c0,12.2-7.74,22.6-18.58,26.53c5.05-5.1,8.17-12.12,8.17-19.87v-6.67
					c0-8.22-5.59-15.16-13.17-17.2c-1.49-0.41-3.05-0.63-4.65-0.63c-5.69,0-10.76,2.69-14.01,6.85c-2.29,2.92-3.7,6.56-3.8,10.51
					c-0.25,9.36,6.53,17.2,15.84,18.2c2.08,0.22,4.15,0.09,6.07-0.38c-3.28,4.44-8.55,7.33-14.5,7.33c-1.43,0-2.83-0.17-4.16-0.49
					c-7.36-4.43-12.52-12.14-13.5-21.09c-0.11-1.01-0.17-2.05-0.17-3.09c0-7.74,3.12-14.76,8.17-19.87c2.89-2.9,6.39-5.19,10.3-6.63
					c0.21-0.08,0.43-0.16,0.65-0.23c0.66-0.22,1.33-0.43,2.01-0.6c0.45-0.12,0.91-0.23,1.37-0.32c0.39-0.08,0.77-0.15,1.17-0.21
					c0.57-0.09,1.14-0.17,1.72-0.23c0.45-0.05,0.91-0.08,1.37-0.1c0.48-0.03,0.97-0.04,1.46-0.04c0.32,0,0.64,0.01,0.95,0.02
					c0.17,0,0.33,0.01,0.5,0.02c0.21,0.01,0.42,0.02,0.63,0.03c0.07,0.01,0.14,0.01,0.21,0.02c0.16,0.01,0.33,0.03,0.49,0.04
					c0.11,0.01,0.23,0.03,0.35,0.04c0.21,0.02,0.41,0.05,0.61,0.07c0.61,0.08,1.21,0.18,1.81,0.3c0.2,0.04,0.4,0.08,0.6,0.13
					c0.1,0.02,0.21,0.05,0.31,0.07c0.19,0.04,0.39,0.09,0.59,0.14c0.92,0.23,1.81,0.51,2.69,0.83c0.34,0.13,0.67,0.25,1.01,0.39
					c2.57,1.06,4.97,2.49,7.09,4.23V7.46c0-3.98,3.23-7.21,7.21-7.21H149.74z"/>
				<g>
					<g>
						<path class="st1" d="M80.06,42.44v47.4h-2.69c-3.98,0-7.21-3.23-7.21-7.21v-47.4h2.69C76.83,35.23,80.06,38.46,80.06,42.44z"
							/>
					</g>
					<path class="st2" d="M70.2,20.67v2.51v7.16h2.64c2.69,0,5.17,0.88,7.17,2.36l0.02-4.79c0.01-3.99-3.22-7.23-7.21-7.23H70.2z"/>
				</g>
			</g>
			<g>
				<path class="st1" d="M290.12,33.39c-2.19,0.81-4.17,2.1-5.78,3.75c-0.03,0.02-0.05,0.05-0.08,0.08
					c-0.76,0.78-1.43,1.64-2.02,2.57l-0.04,0.06c-0.11,0.19-0.23,0.39-0.35,0.59c-0.04,0-0.07,0-0.11,0.01
					c-2.63,0.13-6.5,0.66-11.37,2.21c-2.3,0.73-4.85,1.7-7.6,2.96c-2.06,0.96-4.22,2.07-6.51,3.4l-0.02-0.02
					c-0.35-0.2-0.69-0.43-1-0.67c-0.15-0.11-0.3-0.24-0.45-0.38c-2.25-2-4.99-5.76-4.99-5.76l7.57-12.82c0,0,13.4-3.55,32.6,3.96
					C290.02,33.35,290.07,33.37,290.12,33.39z"/>
				<path class="st1" d="M308.96,24.8c-4.95,2.64-11.22,5.39-11.95,5.71c-1.29,0.48-2.5,0.95-3.63,1.41
					c-3.6-1.63-15.56-6.41-30.76-5.77c1.14-1.91,2.99-4.86,3.38-4.99c7.7-3.42,16.5-4.58,24.98-3.23c0.14,0.02,0.25,0.04,0.37,0.06
					c0.16,0.03,0.3,0.05,0.46,0.08c8.6,1.5,13.5,4.49,13.5,4.49C306.48,23.19,307.71,23.93,308.96,24.8z"/>
				<path class="st1" d="M266.84,60.44c-0.01,2.07,1.39,3.95,3.49,4.45c2.46,0.62,4.94-0.88,5.54-3.34c0.5-2-0.4-4.02-2.08-5.02
					l2.99-3.34c0.42-0.47,0.44-1.16,0.05-1.66l-0.17-0.24l-5.96,4.66l-3.5,2.74c-0.1,0.22-0.15,0.45-0.22,0.68
					C266.89,59.72,266.84,60.08,266.84,60.44z"/>
				<path class="st1" d="M268.9,77.56l1.17,1.28c0.67-0.07,1.32-0.14,1.94-0.22h0.01c1.66-0.23,3.13-0.52,4.42-0.86
					c0-0.01,0.01-0.01,0.02,0c0.84-0.23,1.6-0.46,2.3-0.71c0.19-0.08,0.37-0.14,0.56-0.21c2.24-0.88,3.71-1.86,4.64-2.65
					c0.88-0.76,1.38-1.86,1.38-3.03v-3.29c-1.75,2.85-3.97,4.86-6.2,6.26c-0.5,0.33-1.02,0.62-1.52,0.88
					c-2.76,1.46-5.41,2.08-7.11,2.34C269.77,77.48,269.22,77.54,268.9,77.56z"/>
				<path class="st1" d="M301.79,74.48c-3.89,5.11-10.06,8.41-16.96,8.41c-4.8,0-9.24-1.6-12.81-4.28h-0.01
					c-0.52-0.4-1.02-0.81-1.5-1.25c-4.33-3.91-7.03-9.55-7.03-15.84c0-5.62,2.18-10.73,5.73-14.54c-2.21,0.79-4.45,1.73-6.67,2.81
					l-1.19,0.6c-0.74,0.37-1.53,0.79-2.43,1.29c-0.29,0.15-0.55,0.3-0.81,0.45c-1.03,2.94-1.59,6.1-1.59,9.38
					c0,15.64,12.67,28.31,28.31,28.31c8.12,0,15.44-3.42,20.58-8.88C305.26,80.75,303.4,78.4,301.79,74.48z"/>
				<path class="st2" d="M343.77,7.94L343.77,7.94c0.01-0.01-0.01,0.2-0.18,0.66c-0.1,0.3-0.22,0.55-0.31,0.72
					c-0.33,0.68-0.87,1.64-1.78,2.96c-3.54,5.39-11.37,12.16-12.24,12.91c1.29,0.54,2.2,1.82,2.2,3.31c0,0.8-0.27,1.54-0.71,2.13
					c-2.17,3.27-8.86,6.83-11.16,7.71c0.09,0.22-0.09-0.23,0,0c0.9,0.56,1.51,1.56,1.51,2.71c0,0.55-0.14,1.07-0.38,1.52
					c-0.15,0.26-0.32,0.5-0.53,0.71c0,0-1.82,2.21-8.84,4.01c-0.72,0.19-1.5,0.36-2.34,0.54c1.06,0.51,1.79,1.58,1.79,2.84
					c0,0.5-0.12,0.98-0.32,1.39h-0.01c0,0.02,0,0.03-0.02,0.04c0,0.03-0.02,0.05-0.03,0.07c-0.13,0.23-0.28,0.44-0.45,0.63
					c-0.06,0.07-0.13,0.14-0.2,0.21c-0.9,0.86-2.23,1.35-3.11,1.59c-0.34,0.1-0.61,0.16-0.77,0.19c-0.1,0.02-0.16,0.03-0.16,0.03
					c-0.85,0.16-1.72,0.22-2.56,0.22h-0.22c-0.77-0.01-1.51-0.07-2.15-0.14c0.7,0.59,1.15,1.46,1.15,2.45
					c0,1.27-0.77,2.36-1.86,2.86c-0.47,0.23-1.93,0.5-1.93,0.5c-0.82,0.17-1.68,0.28-2.57,0.29h-0.15c-2.34,0-4.54-0.68-6.41-1.82
					c-2.89-1.71-5.04-4.54-5.86-7.89v-0.01c-0.03-0.13-0.06-0.25-0.09-0.38c-0.03-0.11-0.06-0.22-0.07-0.34
					c-0.03-0.12-0.04-0.24-0.06-0.36c-0.12-0.66-0.17-1.32-0.17-2.01c0-3.08,1.11-5.9,2.93-8.11h-0.01c2.32-3.09,6.17-4.3,6.17-4.3
					h0.01c1.53-0.69,3.54-1.54,6.21-2.52c0.13-0.05,0.46-0.2,0.97-0.43c2.3-1.02,8.07-3.62,12.43-6.03
					c0.24-0.14,0.49-0.27,0.72-0.41c0.33-0.2,0.66-0.38,0.98-0.58c0.05-0.02,0.09-0.05,0.14-0.08v0.01
					c2.49-1.48,4.76-2.88,6.81-4.19c0.1-0.06,0.2-0.12,0.29-0.19c7.2-4.68,11.6-8.34,14.2-10.85c0.6-0.57,1.09-1.08,1.51-1.53
					c0.08-0.08,0.16-0.17,0.24-0.25c0.04-0.04,0.08-0.08,0.12-0.13c0.77-0.9,1.46-1.95,1.82-2.51c0.07-0.13,0.15-0.25,0.22-0.37
					c0.02-0.02,0.04-0.06,0.04-0.06l0.01,0.01c0.54-0.69,1.36-1.15,2.31-1.15c1.61,0,2.93,1.32,2.93,2.93
					C343.83,7.61,343.8,7.78,343.77,7.94z"/>
				<path class="st1" d="M322.03,89.51c-5.64-2.05-10.48-5.77-13.93-10.55c-2.04-2.82-3.62-6.01-4.57-9.45c0,0-0.98-3.37-1.33-7
					c0,0,0.1-0.05,0.26-0.14c0.82-0.46,3.28-2.07,2.39-4.48c0,0,1.81-0.12,3.8-0.86c0.21-0.09,0.42-0.17,0.63-0.26
					c0.14-0.06,0.28-0.12,0.42-0.2c0.19-0.09,0.37-0.19,0.56-0.3c0.14-0.07,0.27-0.16,0.4-0.24c0.09-0.05,0.18-0.11,0.26-0.18
					c0.12-0.08,0.24-0.18,0.36-0.26c0.18-0.14,0.35-0.29,0.52-0.45l0.03-0.02l0.02-0.03c0.03-0.02,0.06-0.05,0.09-0.08
					c1.19-1.2,1.98-2.91,1.72-5.29c3.7-1.09,5.95-2.3,7.26-3.22c-0.19,3.98-1.54,6.88-2.03,7.83c0,0-0.13,0.25-0.36,0.64v0.01
					c-0.24,0.39-0.6,0.92-1.08,1.46c-0.97,1.31-4.43,6.47-3.85,13.09c0.12,3.58,0.83,6.99,2.07,10.15
					C317.09,83.37,319.27,86.71,322.03,89.51z"/>
			</g>
		</g>
	</g>
	<g>
		<path class="st3" d="M355.03,64.94c-0.91-0.74-1.83-1.29-2.74-1.65c-0.91-0.36-1.8-0.53-2.65-0.53c-1.08,0-1.97,0.26-2.65,0.77
			c-0.68,0.51-1.03,1.18-1.03,2.01c0,0.57,0.17,1.04,0.51,1.41c0.34,0.37,0.79,0.69,1.35,0.96c0.56,0.27,1.18,0.51,1.88,0.71
			c0.7,0.2,1.39,0.41,2.08,0.64c2.74,0.91,4.74,2.13,6.01,3.66c1.27,1.53,1.9,3.52,1.9,5.97c0,1.65-0.28,3.15-0.83,4.49
			c-0.56,1.34-1.37,2.49-2.44,3.44c-1.07,0.96-2.38,1.7-3.94,2.22c-1.55,0.53-3.32,0.79-5.28,0.79c-4.08,0-7.86-1.21-11.34-3.64
			l3.59-6.76c1.25,1.11,2.49,1.94,3.72,2.48c1.23,0.54,2.44,0.81,3.64,0.81c1.37,0,2.39-0.31,3.06-0.94
			c0.67-0.63,1.01-1.34,1.01-2.14c0-0.48-0.09-0.9-0.26-1.26c-0.17-0.36-0.46-0.68-0.86-0.98c-0.4-0.3-0.92-0.58-1.56-0.83
			c-0.64-0.26-1.42-0.54-2.33-0.86c-1.08-0.34-2.15-0.72-3.19-1.13c-1.04-0.41-1.97-0.96-2.78-1.65c-0.81-0.68-1.47-1.55-1.97-2.59
			c-0.5-1.04-0.75-2.36-0.75-3.96c0-1.6,0.26-3.04,0.79-4.34c0.53-1.3,1.27-2.41,2.22-3.34c0.96-0.93,2.12-1.65,3.51-2.16
			c1.38-0.51,2.93-0.77,4.64-0.77c1.6,0,3.27,0.22,5.01,0.66c1.74,0.44,3.41,1.09,5.01,1.95L355.03,64.94z"/>
		<path class="st3" d="M375.41,69.14h12.11V56.69h8.38v32.26h-8.38v-13.3h-12.11v13.3h-8.38V56.69h8.38V69.14z"/>
		<path class="st3" d="M403.23,72.81c0-2.4,0.44-4.63,1.33-6.7c0.88-2.07,2.11-3.87,3.68-5.41c1.57-1.54,3.44-2.74,5.63-3.61
			c2.18-0.87,4.58-1.31,7.21-1.31c2.59,0,4.99,0.44,7.19,1.31c2.2,0.87,4.09,2.07,5.67,3.61c1.58,1.54,2.82,3.34,3.7,5.41
			c0.88,2.07,1.33,4.3,1.33,6.7s-0.44,4.63-1.33,6.7c-0.88,2.07-2.12,3.87-3.7,5.41c-1.58,1.54-3.47,2.75-5.67,3.61
			c-2.2,0.87-4.59,1.31-7.19,1.31c-2.62,0-5.03-0.44-7.21-1.31c-2.18-0.87-4.06-2.07-5.63-3.61c-1.57-1.54-2.8-3.34-3.68-5.41
			C403.67,77.44,403.23,75.21,403.23,72.81z M412,72.81c0,1.28,0.24,2.47,0.73,3.55c0.49,1.08,1.14,2.03,1.97,2.82
			c0.83,0.8,1.79,1.42,2.89,1.86c1.1,0.44,2.26,0.66,3.49,0.66c1.23,0,2.39-0.22,3.49-0.66c1.1-0.44,2.07-1.06,2.91-1.86
			c0.84-0.8,1.5-1.74,1.99-2.82c0.48-1.08,0.73-2.27,0.73-3.55s-0.24-2.47-0.73-3.55c-0.49-1.08-1.15-2.02-1.99-2.82
			c-0.84-0.8-1.81-1.42-2.91-1.86c-1.1-0.44-2.26-0.66-3.49-0.66c-1.23,0-2.39,0.22-3.49,0.66c-1.1,0.44-2.06,1.06-2.89,1.86
			c-0.83,0.8-1.48,1.74-1.97,2.82C412.24,70.35,412,71.53,412,72.81z"/>
		<path class="st3" d="M454.67,88.94h-8.38V56.69h13.35c3.62,0,6.4,0.94,8.32,2.82c1.93,1.88,2.89,4.53,2.89,7.96
			c0,3.42-0.96,6.07-2.89,7.96c-1.93,1.88-4.7,2.82-8.32,2.82h-4.96V88.94z M454.67,71.49h2.78c3.08,0,4.62-1.34,4.62-4.02
			c0-2.68-1.54-4.02-4.62-4.02h-2.78V71.49z"/>
	</g>
</g>
</svg>
