<svg version="1.1" xmlns="http://www.w3.org/2000/svg" x="0" y="0" viewBox="0 0 641.2 95.4"><path fill="#1E335F" d="M0.9,48c0-12.7,4.5-23.5,13.4-32.4C23.2,6.6,34.1,2.2,46.8,2.2c7.7,0,14.9,1.8,21.7,5.3c3.8,2,5.7,3.9,5.7,5.8c0,0.9-0.5,1.9-1.4,3.2l-7.9,10.1c-1.2,1.5-2.4,2.3-3.7,2.3c-0.7,0-1.9-0.5-3.6-1.5c-3.5-2-7.2-3-10.9-3c-6.6,0-12.2,2.3-16.7,6.9c-4.4,4.4-6.5,9.9-6.5,16.5c0,6.3,2.2,11.8,6.7,16.5c4.5,4.7,9.8,7.1,16,7.1c4.6,0,8.8-1.2,12.8-3.6c0.7-0.5,1.5-0.7,2.2-0.7c1.3,0,2.5,0.7,3.7,2.2l7.9,10.1c0.9,1.2,1.4,2.2,1.4,3.2c0,1.4-0.7,2.6-2.2,3.7c-2.1,1.6-4.9,3.1-8.6,4.5c-5.3,2-10.9,3-16.9,3c-13.2,0-24.1-4.4-32.7-13.1C5.2,71.7,0.9,60.9,0.9,48z"/><path fill="#1E335F" d="M80.4,59.2c0-9.5,3.4-17.6,10.1-24.4c6.6-6.7,14.8-10.1,24.5-10.1c9.3,0,17.3,3.4,24,10.1c6.7,6.7,10.1,14.8,10.1,24.3c0,9.5-3.3,17.6-10,24.3c-6.7,6.8-14.8,10.2-24.3,10.2c-9.5,0-17.5-3.4-24.2-10.1C83.8,76.8,80.4,68.7,80.4,59.2z M97.4,59.2c0,5,1.7,9.2,5.2,12.6c3.4,3.4,7.4,5.1,12.1,5.1c4.8,0,8.9-1.7,12.3-5.1c3.4-3.4,5.1-7.6,5.1-12.6c0-5-1.7-9.2-5.2-12.7c-3.4-3.4-7.5-5.1-12.3-5.1c-4.6,0-8.6,1.7-11.9,5.1C99.1,50,97.4,54.2,97.4,59.2z"/><path fill="#1E335F" d="M153.1,38.5v-9.3c-0.1-2.4,1.1-3.6,3.5-3.6c0.1,0,0.1,0,0.2,0H194c0.1,0,0.1,0,0.2,0c2.4,0,3.6,1.2,3.5,3.6v9.3c0.1,2.4-1.1,3.6-3.5,3.6c-0.1,0-0.1,0-0.2,0h-10.3v46.8c0.1,2.4-1.1,3.6-3.5,3.6c-0.1,0-0.1,0-0.2,0h-9.7c-0.1,0-0.1,0-0.2,0c-2.4,0-3.5-1.2-3.5-3.6V42.1h-10c-0.1,0-0.1,0-0.2,0C154.2,42.1,153.1,40.9,153.1,38.5z"/><path fill="#1E335F" d="M200.3,38.5v-9.3c-0.1-2.4,1.1-3.6,3.5-3.6c0.1,0,0.1,0,0.2,0h37.2c0.1,0,0.1,0,0.2,0c2.4,0,3.6,1.2,3.5,3.6v9.3c0.1,2.4-1.1,3.6-3.5,3.6c-0.1,0-0.1,0-0.2,0h-10.3v46.8c0.1,2.4-1.1,3.6-3.5,3.6c-0.1,0-0.1,0-0.2,0h-9.7c-0.1,0-0.1,0-0.2,0c-2.4,0-3.5-1.2-3.5-3.6V42.1h-10c-0.1,0-0.1,0-0.2,0C201.4,42.1,200.3,40.9,200.3,38.5z"/><path fill="#1E335F" d="M248.4,59.2c0-9.5,3.4-17.6,10.1-24.4c6.6-6.7,14.8-10.1,24.5-10.1c9.3,0,17.3,3.4,24,10.1c6.7,6.7,10.1,14.8,10.1,24.3c0,9.5-3.3,17.6-10,24.3c-6.7,6.8-14.8,10.2-24.3,10.2c-9.5,0-17.5-3.4-24.2-10.1C251.7,76.8,248.4,68.7,248.4,59.2z M265.3,59.2c0,5,1.7,9.2,5.2,12.6c3.4,3.4,7.4,5.1,12.1,5.1c4.8,0,8.9-1.7,12.3-5.1c3.4-3.4,5.1-7.6,5.1-12.6c0-5-1.7-9.2-5.2-12.7c-3.4-3.4-7.5-5.1-12.3-5.1c-4.6,0-8.6,1.7-11.9,5.1C267,50,265.3,54.2,265.3,59.2z"/><path fill="#1E335F" d="M322.9,89V29.1c-0.1-2.4,1.1-3.6,3.5-3.6c0.1,0,0.1,0,0.2,0h9.5c1.3,0,2.3,0.2,2.9,0.5c0.6,0.4,1.3,1.1,2,2.2l19.6,32.4V29.1c-0.1-2.4,1.1-3.6,3.5-3.6c0.1,0,0.1,0,0.2,0h9.6c0.1,0,0.1,0,0.2,0c2.4,0,3.5,1.2,3.5,3.6V89c0.1,2.4-1.1,3.6-3.5,3.6c-0.1,0-0.1,0-0.2,0h-9.4c-1.3,0-2.3-0.2-2.9-0.5c-0.6-0.4-1.2-1.1-2-2.2l-19.7-32.3V89c0.1,2.4-1.1,3.6-3.5,3.6c-0.1,0-0.1,0-0.2,0h-9.7c-0.1,0-0.1,0-0.2,0C324,92.6,322.9,91.4,322.9,89z"/><path fill="#1E335F" d="M397.9,71.6c0-6.8,3.1-12.8,9.4-18.1c-3.5-3.5-5.3-7.6-5.3-12.4c0-4.8,1.8-8.9,5.4-12.3c3.8-3.6,8.3-5.4,13.5-5.4c5.1,0,9.4,1.7,13.1,5.2c3.6,3.4,5.4,7.6,5.4,12.4c0,5.4-2.4,10-7.3,13.9l2.3,2.1c1.9-3.2,3.1-5.3,3.6-6.4c1.1-2.1,2.2-3.2,3.4-3.2c0.6,0,1.3,0.2,2.2,0.6l7.8,3.8c1.6,0.7,2.3,1.7,2.3,2.9c0,0.6-0.2,1.3-0.7,2.2l-6.2,11.6l10.9,10.1c1,1,1.5,1.9,1.5,2.8c0,0.8-0.4,1.6-1.1,2.6l-4.6,5.8c-0.9,1.1-1.8,1.7-2.8,1.7c-0.8,0-1.6-0.4-2.5-1.2l-8.7-7.8c-4.5,7.2-10.8,10.8-18.9,10.8c-6.4,0-11.8-2.2-16.2-6.6C400,82.4,397.9,77.4,397.9,71.6z M414.5,71.2c0,1.7,0.6,3.1,1.7,4.3c1.1,1.1,2.4,1.7,3.9,1.7c2,0,4-1.7,5.9-5.1l-3.3-3.1c-0.1-0.1-0.3-0.3-0.8-0.7c-0.8-0.7-1.5-1.3-1.9-1.7l-1.9-1.9C415.8,66.8,414.5,69,414.5,71.2z M418.6,41.4c0,1,0.3,2,0.9,2.9l0.8,1.3l0.5-0.4l0.7-0.8c0.8-1,1.3-1.9,1.3-2.9c0-1.4-0.7-2.2-2.1-2.2C419.3,39.5,418.6,40.1,418.6,41.4z"/><path fill="#1E335F" d="M467.7,29.7c0-8.2,2.5-14.8,7.6-19.8c5-5,11.4-7.4,19.3-7.4c7.7,0,14.2,2.8,19.5,8.3c2.5,2.6,3.8,4.8,3.8,6.4c0,1.7-1,3.1-3.1,4l-11.9,5.4c-1.1,0.5-1.9,0.8-2.4,0.8c-1,0-2.1-0.5-3.3-1.6c-0.9-0.8-1.8-1.2-2.7-1.2c-1.2,0-2.2,0.6-3,1.8c-0.7,1-1,2-1,3.1c0,1.6,0.9,3.1,2.8,4.4c0.7,0.5,2.5,1.4,5.3,2.7l1.6,0.7c6.7,3.1,11.6,6.2,14.7,9.3c4.8,4.8,7.2,11.1,7.2,18.9c0,8.2-2.7,14.9-8,20.3c-5.2,5.2-11.5,7.8-19,7.8c-9.3,0-16.5-3.5-21.8-10.6c-2.4-3.2-3.6-5.5-3.6-6.9c0-1.7,1.1-3,3.2-3.9l9.5-4.3c1.1-0.5,1.9-0.7,2.5-0.7c1.2,0,2.4,0.7,3.7,2c1.4,1.4,3.2,2.2,5.4,2.2c3.8,0,5.7-1.8,5.7-5.4c0-2.5-1-4.4-2.9-5.8c-1.2-0.9-3.4-1.9-6.6-3C475.1,52,467.7,42.8,467.7,29.7z"/><path fill="#1E335F" d="M527.9,89V29.1c-0.1-2.4,1.1-3.6,3.5-3.6c0.1,0,0.1,0,0.2,0h9.7c0.1,0,0.1,0,0.2,0c2.4,0,3.5,1.2,3.5,3.6V89c0.1,2.4-1.1,3.6-3.5,3.6c-0.1,0-0.1,0-0.2,0h-9.7c-0.1,0-0.1,0-0.2,0C529,92.6,527.9,91.4,527.9,89z"/><path fill="#1E335F" d="M550.8,89V29.1c-0.1-2.4,1.1-3.6,3.5-3.6c0.1,0,0.1,0,0.2,0h9.7c0.1,0,0.1,0,0.2,0c2.4,0,3.5,1.2,3.5,3.6v46.9h16.3c0.1,0,0.1,0,0.2,0c2.4,0,3.6,1.2,3.5,3.6V89c0.1,2.4-1.1,3.6-3.5,3.6c-0.1,0-0.1,0-0.2,0h-29.6c-0.1,0-0.1,0-0.2,0C551.9,92.6,550.7,91.4,550.8,89z"/><path fill="#1E335F" d="M592.1,89V29.1c-0.1-2.4,1.1-3.6,3.5-3.6c0.1,0,0.1,0,0.2,0h9.7c0.1,0,0.1,0,0.2,0c2.4,0,3.5,1.2,3.5,3.6v17.5l11.1-18.4c0.7-1.1,1.4-1.9,2-2.2c0.6-0.3,1.5-0.5,2.9-0.5h12.6c1.6,0,2.4,0.6,2.4,1.8c0,0.4-0.2,0.9-0.5,1.5l-18.7,30.5l19.1,30.1c0.4,0.6,0.5,1,0.5,1.4c0,1.3-0.8,1.9-2.4,1.9h-13.1c-1.3,0-2.3-0.2-2.9-0.5c-0.6-0.4-1.3-1.1-2-2.2l-11-18.2V89c0.1,2.4-1.1,3.6-3.5,3.6c-0.1,0-0.1,0-0.2,0h-9.7c-0.1,0-0.1,0-0.2,0C593.2,92.6,592.1,91.4,592.1,89z"/></svg>
