<svg fill="#3963F9" viewBox="0 0 45 13" xmlns="http://www.w3.org/2000/svg"><path d="m4 5-3-3h1.5v-2h3v2h1.5l-7 7 4 4 4-4-1-1-3 3-2-2 1-1 1 1 2-2-2-2 3 3 1-1-1-1-1 1z"/><path d="m13.7 1.24v.953h.977v-.953h-.977zm13.2 0v.953h.977v-.953h-.977zm-16.9.0234v4.67h1.03v-1.85h.514l.621 1.85h1.12l-.857-2.04c.437-.237.656-.647.656-1.23 0-.248-.0439-.472-.133-.67-.0866-.201-.208-.359-.363-.473-.155-.116-.308-.186-.461-.211-.15-.0273-.368-.043-.652-.043h-1.47zm31.1.123-.938.0312v1.06h-.383v.758h.383v1.38c0 .367.0231.634.0664.803.0433.169.142.308.297.42.155.112.378.168.67.168.178 0 .374-.0244.588-.0723v-.73c-.109.00456-.201.00586-.273.00586-.137 0-.236-.0228-.295-.0684-.057-.0479-.0902-.105-.102-.174-.00911-.0706-.0137-.224-.0137-.459v-1.27h.635v-.758h-.635v-1.09zm-30.1.633h.41c.153 0 .268.0182.346.0547.0798.0342.148.103.207.203.0592.098.0898.224.0898.379 0 .449-.201.672-.602.672h-.451v-1.31zm5.48.387c-.351 0-.642.1-.877.301-.232.201-.35.466-.35.799 0 .237.0745.447.223.627s.42.333.816.461c.216.0684.362.132.438.191.0752.0592.113.146.113.26 0 .214-.128.32-.383.32-.299 1e-7-.479-.172-.543-.516l-.766.123c.0843.686.514 1.03 1.29 1.03.412 0 .733-.108.963-.324.23-.216.346-.486.346-.805 0-.185-.0426-.347-.127-.488-.0843-.144-.188-.25-.311-.32-.123-.0706-.316-.153-.58-.246-.235-.082-.39-.154-.465-.213-.0752-.0592-.113-.146-.113-.26 0-.201.1-.301.301-.301.246 0 .415.157.506.469l.688-.205c-.166-.602-.557-.902-1.17-.902zm3.16 0c-.383 0-.7.0924-.953.279-.251.187-.398.454-.441.801l.912.0898c.0251-.353.162-.531.408-.531.134-1e-7.224.0439.27.133.0479.0889.0723.248.0723.479v.131c-.674.041-1.14.167-1.39.379-.255.21-.383.507-.383.893 0 .308.0833.543.252.705.169.16.387.238.656.238.419 0 .735-.201.947-.602 0 .26.0169.436.0488.529h.891c-.0387-.082-.0586-.337-.0586-.766v-1.38c0-.344-.0257-.598-.0781-.762-.0501-.164-.173-.309-.369-.432-.196-.125-.456-.188-.779-.188zm5.41.00391c-.447 0-.793.153-1.04.461-.246.308-.369.756-.369 1.34 0 .592.117 1.04.352 1.34.237.299.577.447 1.02.447.823 0 1.27-.454 1.35-1.36l-.895-.0566c-.0228.426-.155.639-.396.639-.155 0-.274-.0791-.354-.236-.0775-.157-.115-.432-.115-.826 0-.679.163-1.02.486-1.02.13 0 .221.0547.275.164.0547.107.0898.267.104.479l.895-.0332c-.0706-.893-.51-1.34-1.32-1.34zm5.26 0c-.394 0-.674.179-.838.539v-.471h-.912v3.45h.963v-2.01c0-.299.026-.499.0762-.604.0524-.107.156-.162.311-.162.125-1e-7.206.0365.24.109.0365.0729.0547.232.0547.479v2.19h.963v-2.01c0-.308.0228-.511.0684-.611.0456-.103.145-.154.295-.154.125 0 .206.0397.242.117.0365.0775.0547.244.0547.502v2.16h.961v-2.26c0-.394-.0277-.661-.0801-.803-.0524-.144-.145-.256-.279-.338-.132-.082-.312-.123-.537-.123-.403 0-.683.179-.838.539-.0866-.36-.334-.539-.744-.539zm4.42 0c-.435 0-.783.158-1.04.475-.257.314-.385.772-.385 1.37 0 .531.121.955.365 1.27.244.317.601.475 1.07.475.761 0 1.22-.401 1.37-1.2l-.857-.0547c-.0365.394-.202.592-.496.592-.137 0-.246-.0534-.33-.158-.0843-.105-.127-.311-.127-.621v-.191h1.81c0-.745-.132-1.26-.396-1.54-.262-.28-.589-.42-.98-.42zm3.72 0c-.417 0-.706.179-.865.539v-.471h-.912v3.45h.963v-2.02c0-.289.0273-.485.082-.59.0547-.107.169-.162.342-.162.1-1e-7.181.0273.24.082.0592.0547.0879.199.0879.432v2.26h.965v-2.26c0-.321-.0215-.562-.0625-.719-.041-.157-.135-.286-.283-.387-.146-.103-.331-.152-.557-.152zm4.99 0c-.937 0-1.4.597-1.4 1.79 0 1.2.468 1.8 1.4 1.8.934 0 1.4-.6 1.4-1.8 0-1.2-.468-1.79-1.4-1.79zm-20.2.0234c-.392 0-.664.293-.816.879v-.834h-.848v3.45h.963v-1.49c0-.711.236-1.07.705-1.07.0365 0 .0895.00456.16.0137v-.939c-.0615-.0114-.116-.0176-.164-.0176zm-9.54.0449v3.45h.963v-3.45h-.963zm13.2 0v3.45h.965v-3.45h-.965zm7.86.566c.301 0 .451.224.451.668 0 .0228.000313.0547-.00195.0957h-.896c.00228-.508.151-.764.447-.764zm8.69.0352c.15 0 .255.0775.314.232.0615.155.0918.451.0918.891 0 .424-.027.719-.084.883-.057.162-.165.242-.322.242-.164 0-.273-.082-.328-.246-.0547-.164-.082-.457-.082-.879 0-.456.0319-.755.0957-.9.0638-.148.169-.223.314-.223zm-23.5 1.2v.172c0 .351-.0488.592-.145.725-.0934.13-.198.193-.314.193-.214 0-.32-.146-.32-.438 0-.219.0592-.374.178-.465.121-.0934.321-.156.602-.188zm-6.86 2.96v.953h.979v-.953h-.979zm-1.74 1.17c-.351 0-.644.1-.879.301-.232.201-.35.466-.35.799 0 .237.0745.447.223.627.148.18.422.333.818.461.216.0684.362.132.438.191.0752.0592.111.146.111.26 0 .214-.128.322-.383.322-.299 0-.479-.174-.543-.518l-.766.123c.0843.686.514 1.03 1.29 1.03.412 0 .735-.108.965-.324.23-.216.346-.486.346-.805 0-.185-.0426-.347-.127-.488-.0843-.144-.187-.25-.311-.32-.123-.0706-.318-.153-.582-.246-.235-.082-.39-.154-.465-.213-.0752-.0592-.111-.146-.111-.26 0-.201.0983-.301.299-.301.246 0 .415.157.506.469l.688-.205c-.166-.602-.555-.902-1.17-.902zm4.68.00391c-.447 0-.793.153-1.04.461-.246.308-.369.756-.369 1.34 1e-6.592.117 1.04.352 1.34.237.299.577.447 1.02.447.823 0 1.27-.454 1.35-1.36l-.896-.0566c-.0228.426-.153.639-.395.639-.155 0-.274-.0791-.354-.236-.0775-.157-.115-.432-.115-.826 0-.679.161-1.02.484-1.02.13 0 .223.0547.277.164.0547.107.0879.267.102.479l.896-.0332c-.0706-.893-.51-1.34-1.32-1.34zm8.65 0c-.937 0-1.41.597-1.41 1.79 1e-6 1.2.47 1.8 1.41 1.8.934 0 1.4-.6 1.4-1.8 0-1.2-.466-1.79-1.4-1.79zm-1.81.0234c-.392 0-.664.293-.816.879v-.834h-.848v3.45h.963v-1.49c0-.711.234-1.07.703-1.07.0365 0 .0915.00456.162.0137v-.939c-.0615-.0114-.116-.0176-.164-.0176zm-9.78.0449v3.45h.963v-3.45h-.963zm4.72 0v2.25c0 .333.0199.577.0586.734.0387.157.124.286.256.389.132.103.324.154.572.154.185 0 .342-.0319.477-.0957.137-.0638.273-.213.41-.447v.471h.906v-3.45h-.963v1.76c0 .337-.00781.561-.0215.67-.0137.107-.0531.19-.119.252-.0638.0615-.158.0938-.283.0938-.137 0-.227-.0381-.268-.113s-.0605-.224-.0605-.447v-2.21h-.965zm6.86.602c.15 0 .255.0775.314.232.0615.155.0938.451.0938.891 1e-6.424-.029.719-.0859.883-.057.162-.165.242-.322.242-.164 0-.273-.082-.328-.246-.0547-.164-.082-.457-.082-.879 0-.456.0319-.755.0957-.9.0638-.148.169-.223.314-.223z"/></svg>