<?xml version="1.0" encoding="UTF-8" standalone="no"?>
<!-- Created with Inkscape (http://www.inkscape.org/) -->

<svg
   width="272.53705mm"
   height="111.26197mm"
   viewBox="0 0 272.53705 111.26197"
   version="1.1"
   id="svg5"
   xml:space="preserve"
   inkscape:version="1.2.2 (732a01da63, 2022-12-09)"
   sodipodi:docname="disegno.svg"
   xmlns:inkscape="http://www.inkscape.org/namespaces/inkscape"
   xmlns:sodipodi="http://sodipodi.sourceforge.net/DTD/sodipodi-0.dtd"
   xmlns="http://www.w3.org/2000/svg"
   xmlns:svg="http://www.w3.org/2000/svg"><sodipodi:namedview
     id="namedview7"
     pagecolor="#ffffff"
     bordercolor="#666666"
     borderopacity="1.0"
     inkscape:showpageshadow="2"
     inkscape:pageopacity="0.0"
     inkscape:pagecheckerboard="0"
     inkscape:deskcolor="#d1d1d1"
     inkscape:document-units="mm"
     showgrid="false"
     inkscape:zoom="0.79285915"
     inkscape:cx="362.6117"
     inkscape:cy="349.99912"
     inkscape:window-width="1920"
     inkscape:window-height="1051"
     inkscape:window-x="-9"
     inkscape:window-y="-9"
     inkscape:window-maximized="1"
     inkscape:current-layer="svg5" /><defs
     id="defs3138" /><path
     style="fill:#6656fe;stroke-width:0.0846667"
     d="m 52.826865,95.331385 c -2.0373,-0.25282 -3.956363,-0.82469 -5.813348,-1.73234 -4.91774,-2.40368 -8.478961,-6.80468 -9.798393,-12.10897 -0.545052,-2.19119 -0.507914,-0.55038 -0.537024,-23.7265 l -0.02645,-21.0595 -10.179224,-0.0225 -10.179224,-0.0225 -0.452797,-0.25081 c -0.553689,-0.30669 -0.897712,-0.78171 -1.079208,-1.49016 -0.168055,-0.65598 -0.129572,-3.56084 0.05414,-4.08634 0.166893,-0.47741 0.686973,-1.02013 1.199513,-1.25173 l 0.447691,-0.2023 12.01551,-0.0229 c 7.853011,-0.0149 12.179308,0.007 12.488332,0.063 1.190552,0.21614 2.222796,1.01132 2.750577,2.11889 l 0.262245,0.55034 0.045,23.19866 0.04501,23.19867 0.189462,0.82498 c 0.510637,2.22349 1.463433,3.9682 3.020158,5.53035 1.588287,1.59383 3.410949,2.58313 5.632704,3.05733 1.01362,0.21634 3.312566,0.21373 4.317999,-0.005 2.206007,-0.47971 3.940962,-1.43097 5.556698,-3.04672 1.579025,-1.57902 2.477228,-3.18385 3.015243,-5.38736 0.165388,-0.67739 0.178646,-1.03806 0.225721,-6.13834 l 0.05,-5.41866 0.195038,-0.42334 c 0.536033,-1.16344 1.354734,-1.45421 3.868962,-1.37403 1.632475,0.0521 2.012137,0.16078 2.594152,0.74279 0.678942,0.67894 0.665616,0.55186 0.66482,6.34044 -8.47e-4,6.23678 -0.08475,7.10827 -0.931537,9.67712 -2.255037,6.84103 -8.314824,11.72722 -15.510932,12.50693 -1.079745,0.11699 -3.018747,0.0984 -4.130835,-0.0396 z m 0.424078,-14.6073 c -0.892818,-0.18507 -1.557942,-0.78468 -1.778347,-1.60319 -0.05824,-0.2163 -0.07939,-7.96321 -0.06464,-23.67765 l 0.02191,-23.35617 0.262247,-0.55034 c 0.52456,-1.10081 1.554166,-1.89803 2.73381,-2.11677 0.2895,-0.0537 4.698017,-0.0846 12.071247,-0.0846 10.211494,0 11.711634,-0.0162 12.413275,-0.13425 3.988156,-0.67088 7.335901,-3.562485 8.617593,-7.443417 0.712199,-2.156522 0.698161,-4.695836 -0.03815,-6.900334 -1.174038,-3.515063 -4.125179,-6.2447571 -7.739023,-7.1583091 -1.248266,-0.315551 -2.404771,-0.37552 -7.256991,-0.3763 -4.340606,-6.77e-4 -4.52236,-0.0071 -4.971423,-0.175114 -0.597366,-0.223504 -1.099837,-0.773717 -1.283488,-1.405438 -0.105097,-0.361536 -0.125874,-0.818858 -0.104191,-2.29338 l 0.02709,-1.841792 0.251832,-0.454681 c 0.281525,-0.50829598 0.595732,-0.78242398 1.150984,-1.00415798 0.345059,-0.137797 0.800117,-0.149686 5.66685,-0.14806399813 C 79.111348,0.00212792 79.421389,0.02366792 81.655691,0.58644492 87.065408,1.9490529 91.6909,5.8965089 93.913442,11.047364 c 1.037946,2.405484 1.500751,4.663992 1.500751,7.323667 0,2.144589 -0.251206,3.734036 -0.907254,5.740382 -2.061337,6.304102 -7.406259,10.985602 -14.058501,12.313542 l -1.163244,0.23221 -10.265832,0.0247 -10.265833,0.0247 -0.0014,20.88891 c -0.0011,17.26678 -0.0212,20.97339 -0.115959,21.37607 -0.197527,0.83942 -0.659342,1.35674 -1.491386,1.67066 -0.362162,0.13663 -3.328789,0.199 -3.893922,0.0819 z M 16.674201,51.340905 c -3.548859,-0.32166 -7.1071438,-1.77034 -9.9059988,-4.03299 -0.842214,-0.68086 -2.464206,-2.35707 -3.081892,-3.1849 -1.939032,-2.59872 -3.16242602,-5.59159 -3.56329202,-8.71711 -0.1644,-1.28182 -0.163966,-3.41396 9.57e-4,-4.69033 0.610006,-4.72105 3.02170202,-9.01867 6.72889702,-11.990828 2.40377,-1.927166 5.1531078,-3.173196 8.3819988,-3.798813 l 0.973667,-0.188654 31.237654,-0.02572 c 34.307887,-0.02825 31.6999,-0.06652 32.448997,0.476129 0.223858,0.162159 0.430284,0.423344 0.587265,0.743052 l 0.242079,0.492998 v 1.905 c 0,1.809035 -0.0098,1.926326 -0.194835,2.328333 -0.254627,0.553234 -0.615256,0.916601 -1.149816,1.158539 l -0.433353,0.196128 -31.114997,0.04488 -31.114997,0.04488 -0.719667,0.180838 c -3.407577,0.856257 -5.991907,2.884076 -7.4903588,5.877378 -0.803328,1.60473 -1.14564,3.06913 -1.14564,4.90101 0,3.04378 1.175031,5.78448 3.3886428,7.90385 1.571959,1.50503 3.196816,2.36021 5.502975,2.89627 0.552241,0.12836 1.322124,0.15374 6.009714,0.19805 l 5.376333,0.0508 0.487537,0.23941 c 0.533477,0.26196 0.827653,0.58711 1.052569,1.16341 0.217801,0.55805 0.221008,3.73717 0.0044,4.3572 -0.206434,0.5909 -0.574057,1.0032 -1.144063,1.2831 l -0.485104,0.23822 -5.037666,0.0114 c -2.770717,0.006 -5.399616,-0.0214 -5.842,-0.0615 z"
     id="path3129" /><path
     style="fill:#18184c;stroke-width:0.0846667"
     d="m 157.99401,111.20579 c -0.88754,-0.18473 -1.56824,-0.74524 -1.82689,-1.50434 -0.11783,-0.34583 -0.13159,-2.97274 -0.13159,-25.121045 0,-27.8844 -0.0695,-25.21152 0.67526,-25.95633 0.63575,-0.63575 0.97339,-0.71367 3.0924,-0.71367 2.08607,0 2.45705,0.0819 3.04831,0.67318 0.58091,0.58091 0.65361,0.89933 0.71143,3.11611 l 0.0503,1.92662 0.41086,-0.55556 c 0.9431,-1.27526 2.39324,-2.62735 3.80443,-3.54717 3.72215,-2.42613 8.94775,-3.12461 13.90338,-1.85838 2.79654,0.71454 5.43817,2.18174 7.52707,4.18062 2.89572,2.77092 4.76713,6.38277 5.52823,10.66958 0.29403,1.65612 0.36955,4.70643 0.15932,6.43525 -0.97736,8.03699 -6.08069,14.19517 -13.29621,16.04448 -1.71677,0.44 -2.88201,0.58033 -4.82908,0.58154 -3.56671,0.002 -6.41048,-0.77556 -9.017,-2.4662 -1.36626,-0.88619 -2.85657,-2.28082 -3.77714,-3.53464 l -0.41386,-0.56368 -0.0425,10.1878 c -0.048,11.502155 0.006,10.652445 -0.71729,11.375335 -0.56927,0.56928 -0.92269,0.6543 -2.83856,0.68286 -0.90805,0.0135 -1.81743,-0.01 -2.02085,-0.0524 z m 20.24956,-22.432995 c 4.65564,-0.90864 7.94203,-4.32227 8.99914,-9.34754 0.2953,-1.40377 0.37155,-3.787 0.16772,-5.24199 -0.57382,-4.09628 -2.57067,-7.27869 -5.72188,-9.11909 -2.96626,-1.73239 -7.2703,-1.98229 -10.70694,-0.62165 -2.97517,1.17791 -5.33912,3.55978 -6.56454,6.61426 -1.29196,3.22035 -1.33469,6.89809 -0.11797,10.15664 0.66379,1.77773 1.44662,2.98576 2.81598,4.34551 2.06119,2.04674 4.19985,3.02573 7.46245,3.41597 0.70555,0.0844 2.78565,-0.0303 3.66604,-0.20211 z m -60.60438,6.76829 c -2.92706,-0.29771 -5.28718,-1.34422 -6.99183,-3.10027 -1.6343,-1.68358 -2.51762,-3.60506 -3.0102,-6.54808 -0.13524,-0.808 -0.15151,-1.85907 -0.17849,-11.53583 l -0.0297,-10.64683 h -2.52353 c -2.48264,0 -2.52821,-0.003 -2.81123,-0.19219 -0.54427,-0.3636 -0.58375,-0.54816 -0.58389,-2.73013 0,-2.18591 0.0425,-2.37754 0.60211,-2.70802 0.2671,-0.15772 0.46479,-0.17109 2.88451,-0.19498 l 2.59776,-0.0257 0.0467,-0.22834 c 0.0257,-0.12559 0.33377,-2.07461 0.68456,-4.33114 0.3508,-2.25654 0.67577,-4.24374 0.72215,-4.41599 0.14454,-0.53678 0.59022,-1.10456 1.05289,-1.34134 0.39254,-0.20089 0.51462,-0.21699 1.83422,-0.24187 1.30369,-0.0246 1.44749,-0.0121 1.84799,0.16018 0.50248,0.21617 0.94895,0.6938 1.09067,1.16682 0.0692,0.23087 0.0983,1.64667 0.0983,4.78189 v 4.45391 l 5.35516,0.0236 5.35517,0.0236 0.30895,0.19212 c 0.52239,0.32485 0.58033,0.59634 0.57819,2.70942 -0.002,1.62228 -0.0208,1.88155 -0.16224,2.19302 -0.31798,0.70034 0.0481,0.65741 -6.01277,0.70511 l -5.38013,0.0423 -0.0247,9.69433 c -0.0249,9.7812 0.009,11.27417 0.2795,12.319 0.35627,1.37594 1.15168,2.44262 2.1804,2.92402 1.3736,0.64278 3.28088,0.48263 4.58845,-0.3853 1.2369,-0.821 1.81502,-2.28307 1.58522,-4.00905 -0.1912,-1.43607 -0.0813,-1.86405 0.55043,-2.14349 0.33472,-0.14807 0.54987,-0.15982 2.50377,-0.13675 1.97535,0.0233 2.16329,0.0387 2.47625,0.20206 0.45953,0.23992 0.66894,0.64877 0.83385,1.62796 0.60918,3.61722 -0.24666,6.69347 -2.45582,8.82726 -1.91504,1.84971 -4.49446,2.80158 -7.87774,2.90707 -0.68913,0.0215 -1.59586,0.004 -2.01496,-0.0384 z m 95.631,0.0308 c -5.21166,-0.38257 -9.46299,-2.73169 -11.77083,-6.50412 -0.68035,-1.1121 -0.83776,-1.9317 -0.49866,-2.59639 0.36901,-0.72332 0.85299,-0.99842 2.65625,-1.5098 1.04527,-0.29642 1.351,-0.35147 1.75078,-0.31522 0.70771,0.0642 1.2586,0.40048 1.97029,1.20282 1.30851,1.47515 1.96692,2.00352 3.24002,2.60011 0.39176,0.18359 1.08209,0.43292 1.53406,0.55406 0.7342,0.19679 0.98414,0.22098 2.34576,0.22701 1.77928,0.008 2.24882,-0.0839 3.50164,-0.68446 0.6407,-0.30712 0.9175,-0.50414 1.44655,-1.02963 1.03414,-1.02716 1.41511,-1.98412 1.34228,-3.37169 -0.0895,-1.70563 -1.30876,-2.99081 -3.75048,-3.95333 -0.46566,-0.18356 -2.29446,-0.82586 -4.06399,-1.42734 -3.72063,-1.26468 -4.7135,-1.66557 -5.92098,-2.39078 -1.564,-0.93933 -2.67587,-1.9625 -3.50483,-3.22521 -1.28313,-1.95453 -1.72644,-4.53913 -1.23107,-7.17724 0.48803,-2.59897 1.92231,-4.88134 4.06343,-6.46615 4.21215,-3.11772 11.39926,-3.29548 15.76991,-0.39004 1.75538,1.16692 3.62912,3.48064 3.90847,4.82624 0.18617,0.89674 -0.24047,1.74587 -1.09293,2.17528 -0.52231,0.2631 -2.6103,0.72724 -3.26111,0.7249 -0.82106,-0.003 -1.13342,-0.1959 -2.3809,-1.47085 -1.17034,-1.19611 -1.52687,-1.44543 -2.58233,-1.80585 -0.85205,-0.29097 -2.43,-0.36447 -3.4294,-0.15975 -1.77385,0.36335 -3.09064,1.42634 -3.68241,2.97265 -0.22861,0.59735 -0.28418,1.96314 -0.10401,2.55649 0.16599,0.54672 0.76985,1.37688 1.32516,1.8218 0.89016,0.7132 1.66365,1.03647 5.74164,2.39962 5.30648,1.77379 6.7445,2.49063 8.4863,4.23031 1.91297,1.91065 2.83872,4.24041 2.83872,7.14398 0,4.1736 -2.2114,7.59349 -6.13833,9.49284 -2.49763,1.20804 -5.56165,1.76609 -8.509,1.54974 z m 38.01533,-0.0297 c -4.01826,-0.38171 -7.60352,-1.83471 -10.71033,-4.34062 -2.02189,-1.63081 -4.01537,-4.17198 -5.1277,-6.53649 -1.3017,-2.76704 -1.85768,-5.28542 -1.85691,-8.41093 8.4e-4,-3.07339 0.61726,-5.7479 1.94499,-8.43774 2.74742,-5.56599 8.10867,-9.51068 14.31062,-10.52943 3.20267,-0.52608 6.9028,-0.16974 9.94833,0.95808 6.95066,2.57397 11.82357,8.71392 12.66105,15.95315 0.16734,1.44644 0.0664,4.20008 -0.20618,5.6258 -0.70982,3.71253 -2.4474,7.05332 -5.08851,9.78352 -1.67639,1.73295 -3.26875,2.89345 -5.41903,3.94939 -1.94802,0.95661 -3.84653,1.54604 -5.98103,1.85693 -1.12458,0.1638 -3.41157,0.22938 -4.4753,0.12834 z m 2.96555,-6.60317 c 5.27717,-0.63544 9.32986,-4.45449 10.51021,-9.90428 0.16763,-0.77399 0.19209,-1.12449 0.18907,-2.70933 -0.003,-1.54809 -0.031,-1.94494 -0.18747,-2.65349 -0.59248,-2.68259 -1.68394,-4.70741 -3.52183,-6.53345 -1.79679,-1.78521 -3.57299,-2.75372 -6.00258,-3.27302 -1.13361,-0.24231 -3.20877,-0.26386 -4.30704,-0.0447 -2.35585,0.47003 -4.37497,1.56223 -6.127,3.31427 -1.79625,1.79624 -2.95372,3.96176 -3.52909,6.60261 -0.15816,0.7259 -0.18567,1.11553 -0.18567,2.63014 0,2.00565 0.1162,2.75514 0.67679,4.3657 0.8141,2.33884 2.38118,4.49038 4.34607,5.96695 2.3175,1.74156 5.34673,2.5748 8.13854,2.23863 z m -115.21471,5.75802 c -0.90578,-0.18907 -1.59111,-0.79875 -1.84001,-1.63685 -0.19073,-0.64228 -0.19073,-32.82728 0,-33.46956 0.2,-0.67347 0.54431,-1.07421 1.20042,-1.39721 l 0.57486,-0.28301 h 1.90679 c 1.82899,0 1.92504,0.008 2.35447,0.2023 0.56702,0.25622 1.07845,0.82747 1.24603,1.39177 0.11046,0.37197 0.12661,2.51704 0.12661,16.82093 0,14.30389 -0.0161,16.44896 -0.12661,16.82093 -0.16855,0.56757 -0.6794,1.13668 -1.24603,1.38815 -0.41492,0.18413 -0.57166,0.20012 -2.14103,0.21842 -0.93133,0.0109 -1.85631,-0.0143 -2.0555,-0.0559 z m 0.42158,-43.77351 c -0.91458,-0.2396 -1.585,-0.62776 -2.26963,-1.31408 -0.97093,-0.97331 -1.38812,-2.02822 -1.38812,-3.51004 0,-1.49861 0.47616,-2.68771 1.47365,-3.68011 0.9696,-0.96465 2.11553,-1.42179 3.56402,-1.42179 2.13187,0 3.98959,1.17505 4.78261,3.02511 0.21596,0.5038 0.42475,1.53777 0.42292,2.09438 -0.004,1.25203 -0.54422,2.54923 -1.43626,3.44948 -1.28393,1.29576 -3.32744,1.83432 -5.14919,1.35705 z"
     id="path3131" /></svg>
